<svg width="100%" height="100%" viewBox="0 0 194 33" fill="none" xmlns="http://www.w3.org/2000/svg">
<path d="M156.743 31.1073L164.052 12.0273H151.838L148.183 21.5599H126.16L122.505 31.1073H94.0131L96.5618 24.4446H89.0962L86.5476 31.1073H58.0558L61.7105 21.5599H54.2449L50.5903 31.1073H36.0198L37.6668 26.8168L29.4198 31.1073H6.47017L1.64941 26.9486L9.60787 6.18464L18.6483 1.46954H41.598L45.9258 5.21819L47.3684 1.46954H61.9269L58.2843 11.0169H65.7378L69.3924 1.46954H83.9629L82.3279 5.75998L90.5629 1.46954H113.513L117.84 5.21819L119.283 1.46954H191.835L187.795 12.0273H176.783L169.474 31.1073H156.743Z" fill="white"/>
<path d="M90.4788 16.1859H101.503L103.967 9.72845H92.9553L90.4788 16.1859Z" fill="#070809"/>
<path d="M30.2616 28.8084H8.22556L4.09005 25.2355L5.79715 20.7693H16.8091L16.0157 22.8633H27.0277L28.6026 18.7339H11.8441L7.78075 15.6003L10.9425 7.35623L17.819 3.78331H39.855L43.9905 7.35623L42.2714 11.8224H31.2594L32.0528 9.72842H21.0408L19.478 13.7992H36.4889L40.3719 16.7864L37.1381 25.2355L30.2616 28.8084ZM60.7009 28.8084L64.3555 19.2611H53.3435L49.6889 28.8084H38.6769L48.2583 3.76867H59.2703L55.6156 13.316H66.6276L70.2823 3.76867H81.2943L71.7249 28.8084H60.7009ZM96.6582 28.8084L99.2068 22.1458H88.1948L85.6462 28.8084H74.6342L82.8571 7.34159L89.7336 3.76867H111.77L115.905 7.34159L107.682 28.8084H96.6582ZM150.949 9.72842H128.913L127.542 13.3013H149.578L147.294 19.2611H125.258L121.603 28.8084H110.591L120.185 3.75403H153.233L150.949 9.72842ZM186.906 9.72842H175.894L168.585 28.8084H159.4L166.709 9.72842H153.858L156.142 3.76867H189.19L186.906 9.72842ZM118.622 0.225028L117.432 3.32937L113.837 0.225028H90.3587L84.3839 3.32937L85.574 0.225028H68.7435L65.0888 9.77235H59.8834L63.538 0.225028H46.7074L45.5173 3.32937L41.9228 0.225028H18.4441L8.83867 5.21834L0.363281 27.3587L6.14578 32.352H29.6364L35.6113 29.2477L34.4211 32.352H51.2517L54.9063 22.8047H60.0998L56.4451 32.352C56.6856 32.352 86.4757 32.352 87.209 32.352L89.7576 25.6894H94.9631L92.4145 32.352C92.6549 32.352 122.445 32.352 123.166 32.352L126.821 22.8047H148.857L152.512 13.2574H162.454L155.144 32.3374H170.136L177.445 13.2574H188.457L193.458 0.210388C191.859 0.225031 120.125 0.225028 118.622 0.225028Z" fill="#070809"/>
</svg>
