<svg width="6798" height="7668" viewBox="0 0 6798 7668" fill="none" xmlns="http://www.w3.org/2000/svg">
<path d="M6737.53 5308.9C6887.6 5165.59 6727.7 4981.06 6582 4929.83C6446.13 4881.93 6254.54 4893.07 6265.83 4699.26C6270.56 4617.58 6308.81 4526.25 6277.12 4445.31C6248.35 4371.43 6188.97 4347.66 6115.76 4342.47C6065.49 4339.12 5863.7 4390.73 5768.63 4368.83C5771.18 4341.35 5773.36 4313.51 5775.91 4286.03C5795.22 4276.01 5814.16 4264.5 5832.01 4251.87C5862.97 4220.69 5887.74 4206.21 5910.69 4165.37C5918.33 4152 5904.13 4145.69 5892.47 4145.69C5803.96 4145.69 5715.45 4146.06 5626.93 4146.06C5539.15 4146.06 5444.08 4169.45 5444.08 4040.62C5444.08 3887.28 5671.74 3743.6 5775.55 3660.06C5907.77 3553.5 6039.99 3446.57 6172.22 3340.02C6269.11 3261.68 6388.95 3187.42 6467.62 3088.66C6552.86 2981.73 6564.88 2778.64 6389.31 2769.36C6321.2 2765.65 6258.54 2807.98 6204.27 2843.62C6047.64 2946.83 5894.66 2920.1 5729.29 2972.45C5649.15 2997.7 5589.78 3044.48 5532.96 3106.48C5485.61 3158.46 5446.99 3230.49 5392.36 3274.67C5215.33 3417.61 5087.48 3338.16 5055.43 3164.77C5028.11 3017.75 5114.8 2885.57 5168.34 2756.37C5196.39 2688.42 5243.38 2582.24 5159.24 2536.2C5128.64 2519.49 5089.67 2519.86 5058.7 2538.43C5039.4 2550.31 5027.74 2588.92 5012.81 2594.86C4935.95 2626.05 4900.98 2453.4 4886.78 2381.01C4856.18 2223.58 4856.18 2070.25 4854 1910.6C4852.54 1798.84 4843.43 1664.81 4731.24 1607.63C4608.86 1545.63 4500.67 1632.14 4462.79 1748.35C4444.21 1805.9 4439.84 1867.16 4423.09 1925.08C4391.76 2032.38 4324.01 2085.47 4236.96 2152.67C4205.27 2177.17 4172.48 2197.22 4144.44 2226.18C4118.21 2253.29 4099.63 2282.25 4078.14 2312.69C4068.31 2328.28 4058.84 2343.88 4049 2359.47C4004.2 2457.49 3917.51 2464.54 3788.93 2381.01C3789.66 2371.72 3783.47 2369.12 3775.82 2366.9C3732.47 2354.65 3699.69 2355.02 3659.62 2379.52C3565.28 2437.44 3595.15 2522.46 3607.17 2616.02C3623.56 2660.95 3629.02 2707.36 3622.83 2755.25C3553.62 2807.98 3498.99 2805.75 3459.28 2749.31C3393.72 2712.56 3329.25 2615.28 3276.43 2560.7C3185.73 2467.14 3095.03 2373.58 3003.97 2279.65C2945.69 2129.65 2891.78 1981.88 2819.29 1879.41C2779.59 1822.98 2734.42 1771 2688.89 1719.39C2567.96 1468.4 2447.76 1216.68 2342.49 958.64C2297.69 848.742 2257.26 737.73 2220.47 624.862C2219.74 584.392 2219.74 544.294 2221.56 503.825C2224.84 430.312 2237.95 349.745 2213.91 277.717C2188.78 202.348 2128.31 136.631 2048.18 131.433C2033.24 110.271 2016.85 90.2216 1997.18 72.7716C1893.37 -20.0479 1713.07 -32.3001 1617.27 80.1971C1469.38 253.584 1617.63 531.671 1751.31 701.345C1754.96 750.354 1761.51 794.907 1770.25 830.178C1866.78 1222.99 2119.57 1575.33 2283.48 1940.67C2395.67 2190.91 2772.31 3125.05 2246.33 3136.56C2041.62 3141.01 1796.12 2856.61 1650.78 2735.2C1455.91 2572.21 1263.95 2403.65 1065.07 2245.86C984.567 2182.37 897.147 2112.57 789.329 2126.31C709.194 2136.33 631.609 2193.14 626.145 2279.28C606.111 2604.51 1146.66 2797.21 1347 2942.75C1397.63 2979.51 1616.91 3142.87 1746.21 3290.27C1748.04 3312.54 1754.23 3336.3 1763.7 3364.15C1775.35 3398.31 1809.59 3439.15 1811.05 3475.53C1817.97 3487.41 1821.25 3497.81 1821.61 3507.09C1768.43 3536.42 1591.41 3474.05 1549.15 3469.22C1444.61 3457.71 1340.44 3463.28 1236.63 3478.13C1221.33 3481.47 1202.02 3490.01 1199.84 3508.21C1189.28 3595.83 1234.44 3651.15 1312.39 3686.79C1359.74 3708.32 1408.55 3711.29 1459.91 3715.38C1466.47 3715.75 1472.3 3716.49 1477.76 3716.86C1486.14 3721.69 1494.88 3726.89 1503.26 3731.71C1540.78 3753.25 1615.81 3781.84 1642.4 3812.65C1652.24 3818.96 1662.07 3825.28 1671.91 3831.59C1671.91 3836.04 1671.54 3840.87 1670.81 3846.07C1671.54 3850.15 1671.54 3854.24 1671.91 3858.69C1653.33 3894.33 1634.75 3930.35 1616.54 3965.99C1603.06 3975.27 1587.4 3983.81 1568.82 3990.87C1558.63 3992.35 1550.25 3997.92 1544.42 4004.23C1465.38 4007.95 1346.27 3981.21 1291.27 3977.5C1199.84 3971.56 1108.41 3963.76 1017.71 3950.4C817.012 3920.32 643.993 3843.84 454.583 3778.5C360.971 3746.19 262.988 3725.4 167.19 3759.19C-16.0279 3823.79 -63.3804 4028.37 100.532 4148.29C202.886 4222.92 336.566 4236.65 458.59 4242.96C537.632 4247.05 617.039 4248.53 696.445 4248.9C753.633 4260.04 811.913 4263.76 873.835 4271.18C1016.26 4288.63 1096.76 4385.53 1224.97 4422.66C1351.37 4459.05 1466.47 4436.03 1586.31 4516.22C1636.57 4549.64 1690.12 4591.22 1731.64 4635.4C1755.68 4661.02 1780.82 4685.16 1793.57 4720.06C1824.53 4806.19 1763.7 4833.3 1683.2 4841.09C1578.29 4851.12 1475.94 4816.59 1369.22 4832.55C1283.25 4845.55 1213.68 4888.62 1134.64 4920.92C1017.35 4968.44 907.71 4933.91 794.793 4966.96C759.825 4977.35 720.486 4993.69 701.545 5028.22C642.901 5134.77 772.574 5216.08 862.543 5214.6C925.559 5213.86 984.203 5180.81 1037.02 5150.37C1217.32 5046.41 1410.38 4891.59 1628.2 4955.45C1767.7 4996.29 1720.35 5071.28 1610.35 5134.03C1526.94 5181.55 1490.51 5188.24 1406 5207.54C1324.05 5226.48 1243.55 5253.95 1169.61 5295.54C1057.05 5358.65 830.854 5559.14 947.778 5709.51C1022.81 5806.04 1106.96 5745.53 1176.53 5691.69C1320.77 5580.68 1363.39 5510.51 1431.87 5662.73C1488.33 5788.22 1438.42 5756.66 1334.98 5789.34C1300.37 5800.1 1265.77 5809.38 1232.62 5824.24C1147.02 5862.85 1088.38 5914.09 1052.68 6002.08C1049.4 6010.25 1060.33 6012.85 1065.07 6013.96C1220.97 6048.49 1320.04 5939.7 1441.34 5855.42C1583.76 5756.66 1736.38 5730.67 1890.82 5706.17C1883.17 5724.36 1897.74 5746.64 1927.25 5738.1C1985.53 5721.39 2047.45 5708.77 2083.51 5758.89C2103.54 5786.74 2102.09 5829.81 2096.99 5862.85C2082.05 5963.09 2005.92 5984.26 1931.62 6026.58C1883.54 6053.69 1835.09 6102.69 1848.2 6164.33C1859.5 6217.05 1909.76 6235.24 1958.21 6224.1C1999.37 6214.82 2014.67 6186.23 2048.18 6165.81C2058.01 6159.87 2063.48 6140.56 2073.68 6136.85C2145.43 6136.11 2178.94 6151.33 2174.57 6182.89C1884.27 6458.75 1566.64 6688.57 1258.48 6941.78C1090.56 7079.53 881.849 7394.37 1113.15 7582.61C1294.18 7730 1535.68 7594.86 1672.27 7454.89C1788.47 7335.71 1887.91 7197.22 1976.42 7055.76C2075.86 6896.86 2165.1 6720.5 2332.29 6631.02C2314.81 6721.24 2297.32 6811.83 2279.84 6902.06C2274.38 6931.02 2338.12 6916.16 2345.77 6899.46C2415.34 6750.57 2503.85 6613.57 2620.05 6497.73C2653.56 6464.32 2689.62 6428.68 2728.6 6401.94C2751.91 6388.58 2774.86 6375.21 2798.17 6361.85C2874.66 6383.01 2951.15 6404.17 3027.65 6425.33C3055.33 6449.84 3089.57 6523.35 3114.34 6552.68C3185.37 6636.59 3193.02 6699.71 3173.71 6807.75C3158.78 6892.4 3143.84 6975.2 3139.83 7061.33C3131.82 7228.78 3154.04 7392.51 3197.75 7553.65C3204.67 7579.27 3262.22 7561.07 3265.87 7540.28C3295.01 7384.72 3324.51 7229.15 3354.01 7073.59C3410.11 7227.67 3469.85 7433.73 3659.98 7373.95C3720.45 7355.01 3750.32 7309.35 3763.8 7249.2C3776.91 7190.91 3742.67 7108.12 3772.17 7056.88C3824.99 6964.8 3949.56 6959.23 4038.8 6938.07C4103.64 6922.85 4158.64 6897.23 4200.9 6843.77C4263.18 6764.31 4252.25 6595.01 4321.46 6535.6C4356.07 6505.9 4430.01 6503.67 4491.57 6517.04C4521.8 6537.46 4549.12 6567.53 4573.52 6598.72C4608.49 6643.27 4628.16 6680.03 4675.15 6715.3C4748.73 6770.25 4822.67 6796.61 4881.68 6870.87C4945.79 6951.81 4993.87 7050.2 5045.96 7138.93C5177.81 7365.04 5305.3 7676.91 5606.17 7668C5620.38 7667.63 5647.7 7661.69 5653.89 7645.72C5701.24 7523.95 5630.58 7440.78 5565.38 7344.62C5446.27 7170.12 5442.62 7024.21 5421.86 6823.34C5405.83 6670.01 5303.12 6607.63 5251.76 6471.74C5208.41 6357.02 5214.97 6239.32 5122.81 6149.1C5122.45 6148.73 5122.08 6148.73 5121.72 6148.73C5107.88 6119.03 5096.22 6088.21 5093.31 6055.17C5076.19 5880.3 5331.53 5806.04 5441.17 5930.42C5547.89 6051.83 5615.64 6151.33 5794.13 6129.06C5886.28 6117.55 6030.16 6055.91 6035.62 5941.93C6037.81 5892.55 6017.41 5862.11 5976.61 5840.57C5957.67 5830.55 5911.78 5837.97 5896.12 5826.09C5876.08 5696.15 5911.05 5637.11 6001.02 5648.62C6021.42 5647.51 6041.82 5643.8 6061.48 5637.85C6073.14 5635.63 6102.28 5628.57 6100.46 5610.75C6061.85 5229.45 6557.23 5481.55 6737.53 5308.9Z" fill="#F5FF16"/>
</svg>
